<?xml version="1.0" encoding="UTF-8"?>
<svg width="180px" height="130px" viewBox="0 0 180 130" version="1.1" xmlns="http://www.w3.org/2000/svg" xmlns:xlink="http://www.w3.org/1999/xlink">
    <!-- Generator: Sketch 47.1 (45422) - http://www.bohemiancoding.com/sketch -->
    <title>SuperHi_LostInTokyo_Logo_AW_White</title>
    <desc>Created with Sketch.</desc>
    <defs></defs>
    <g id="Page-1" stroke="none" stroke-width="1" fill="none" fill-rule="evenodd">
        <g id="desktop" transform="translate(-540.000000, -51.000000)" fill-rule="nonzero" fill="#FFFFFF">
            <g id="Header">
                <g id="SuperHi_LostInTokyo_Logo_AW_White" transform="translate(540.000000, 51.000000)">
                    <polygon id="Shape" points="127.128462 68.4553846 127.128462 68.4553846 128.900769 66.1361538 128.900769 66.1361538"></polygon>
                    <polygon id="Shape" points="87.9369231 63.7684615 87.9369231 63.7684615 89.7092308 65.1253846 89.7092308 65.1253846"></polygon>
                    <polygon id="Shape" points="126.228462 69.6323077 119.900769 64.7930769 112.236923 70.6569231 104.58 64.7930769 96.93 70.6569231 89.7092308 65.1253846 89.7092308 65.1253846 96.93 70.6569231 104.58 64.7930769 112.236923 70.6569231 119.900769 64.7930769 126.228462 69.6323077 127.128462 68.4553846 127.128462 68.4553846"></polygon>
                    <polygon id="Shape" points="126.470769 71.4461538 125.446154 70.6569231 119.900769 66.42 113.026154 71.6815385 112.236923 72.2838462 111.454615 71.6815385 104.58 66.42 97.7123077 71.6815385 96.93 72.2838462 96.1407692 71.6815385 88.92 66.15 87.9369231 67.4446154 96.93 74.3261538 104.58 68.4623077 112.236923 74.3261538 119.900769 68.4623077 126.228462 73.3084615 128.900769 69.8123077 128.153077 69.2446154 127.253077 70.4215385"></polygon>
                    <polygon id="Shape" points="96.93 70.6569231 104.58 64.7930769 112.236923 70.6569231 119.900769 64.7930769 126.228462 69.6323077 127.128462 68.4553846 128.900769 66.1361538 119.900769 59.2546154 112.236923 65.1184615 104.58 59.2546154 96.93 65.1184615 90.6092308 60.2792308 87.9369231 63.7684615 89.7092308 65.1253846"></polygon>
                    <polygon id="Shape" points="127.128462 68.4553846 126.228462 69.6323077 119.900769 64.7861538 112.236923 70.65 104.58 64.7861538 96.9230769 70.6569231 89.7023077 65.1184615 87.93 63.7338462 87.93 63.7338462 90.6023077 60.2723077 96.9230769 65.1184615 104.573077 59.2546154 112.23 65.1184615 119.893846 59.2546154 128.893846 66.1361538 128.893846 66.1361538"></polygon>
                    <path d="M165.814615,40.6661538 C162.032043,40.6661519 158.96459,43.7305061 158.960769,47.5130769 L158.960769,65.9007692 L152.494615,65.9007692 L152.494615,67.3684615 L160.414615,67.3684615 L160.414615,49.7976923 C160.426027,45.5698027 163.850572,42.1452575 168.078462,42.1338462 C168.330705,42.1359735 168.582634,42.1521524 168.833077,42.1823077 L168.833077,41.3653846 C167.892031,40.9090675 166.860454,40.6701012 165.814615,40.6661538 L165.814615,40.6661538 Z" id="Shape"></path>
                    <path d="M178.573846,38.4161538 L178.573846,65.9007692 L171.913846,65.9007692 L171.913846,67.3684615 L180,67.3684615 L180,40.1538462 C179.578212,39.5326274 179.100866,38.9510069 178.573846,38.4161538 Z" id="Shape"></path>
                    <path d="M174.461538,35.5638462 C172.3381,33.9185635 169.733094,33.0161756 167.046923,32.9953846 C164.35636,32.9553052 161.772261,34.0451975 159.923077,36 C159.593861,36.3374888 159.284129,36.6934495 158.995385,37.0661538 L157.956923,38.4507692 L157.223077,35.4184615 L156.87,33.9507692 L151.047692,33.9507692 L151.047692,64.2669231 L157.340769,64.2669231 L157.340769,47.5130769 C157.344587,42.8308596 161.139321,39.0361252 165.821538,39.0323077 C167.302155,39.037526 168.756504,39.423763 170.044615,40.1538462 L170.46,40.3823077 L170.46,64.2669231 L176.946923,64.2669231 L176.946923,38.1253846 C176.250251,37.1528632 175.412597,36.2895434 174.461538,35.5638462 Z" id="Shape"></path>
                    <polygon id="Shape" points="137.706923 65.9007692 137.706923 67.3684615 146.693077 67.3684615 146.693077 34.6776923 145.239231 34.6776923 145.239231 65.9007692"></polygon>
                    <polygon id="Shape" points="137.706923 29.25 137.706923 30.7176923 146.693077 30.7176923 146.693077 22.1053846 145.239231 22.1053846 145.239231 29.25"></polygon>
                    <polygon id="Shape" points="136.26 33.21 136.26 64.2669231 137.706923 64.2669231 143.605385 64.2669231 143.605385 34.6776923 143.605385 33.21"></polygon>
                    <polygon id="Shape" points="136.26 20.6376923 136.26 27.6161538 137.706923 27.6161538 143.605385 27.6161538 143.605385 22.1053846 143.605385 20.6376923"></polygon>
                    <rect id="Rectangle-path" x="9.23538462" y="1.51615385" width="1.45384615" height="37.9246154"></rect>
                    <polygon id="Shape" points="34.0130769 51.0230769 34.0130769 42.5353846 32.5661538 42.5353846 32.5661538 49.5553846 1.48153846 49.5553846 1.48153846 51.0230769"></polygon>
                    <polygon id="Shape" points="10.6753846 41.0746154 7.59461538 41.0746154 7.60846154 1.51615385 7.60846154 0.0484615385 0.0276923077 0.0484615385 0.0276923077 47.9284615 1.48153846 47.9284615 30.9323077 47.9284615 30.9323077 42.5353846 30.9323077 41.0746154"></polygon>
                    <polygon id="Shape" points="107.889231 49.5553846 109.135385 51.0230769 116.695385 51.0230769 120.939231 51.0230769 120.939231 42.8884615 119.485385 42.8884615 119.485385 49.5553846"></polygon>
                    <polygon id="Shape" points="113.337692 24.8053846 113.337692 39.7938462 114.784615 39.7938462 114.784615 39.3576923 114.784615 26.2730769 123.064615 26.2730769 123.064615 18.1384615 121.610769 18.1384615 121.610769 24.8053846"></polygon>
                    <rect id="Rectangle-path" x="113.330769" y="8.23846154" width="1.45384615" height="6.79846154"></rect>
                    <polygon id="Shape" points="114.784615 16.6707692 111.703846 16.6707692 111.703846 8.23846154 111.703846 6.77076923 105.203077 6.77076923 105.203077 16.6707692 99.8930769 16.6707692 99.8930769 23.1715385 101.346923 23.1715385 104.496923 23.1715385 104.496923 26.2730769 104.496923 44.6953846 105.943846 46.3984615 107.245385 47.9284615 117.858462 47.9284615 117.858462 42.8884615 117.858462 41.4276923 114.784615 41.4276923 111.703846 41.4276923 111.703846 23.1715385 119.976923 23.1715385 119.976923 18.1384615 119.976923 16.6707692"></polygon>
                    <path d="M83.5615385,37.5230769 L78.5976923,35.64 C76.4393895,34.8919411 74.502244,33.6163761 72.9623077,31.9292308 C74.1530769,34.3246154 76.3615385,36.1176923 79.6223077,37.3430769 L84.5861538,39.2261538 C85.0346399,39.3942685 85.4658669,39.6052451 85.8738462,39.8561538 C85.8775922,39.8146998 85.8775922,39.7729925 85.8738462,39.7315385 C85.9015385,39.4061538 85.9015385,38.4161538 83.5615385,37.5230769 Z" id="Shape"></path>
                    <path d="M83.1876923,24.1061538 C82.2669231,24.1061538 81.1938462,24.3969231 81.1938462,25.2207692 C81.1938462,25.7469231 81.3807692,26.4184615 82.7307692,26.9861538 C83.0146154,26.1138462 84.0184615,25.6015385 85.4515385,25.6015385 C85.5553846,25.6015385 85.6453846,25.6361538 85.7423077,25.6430769 C85.1743291,24.7632134 84.2311154,24.1957515 83.1876923,24.1061538 Z" id="Shape"></path>
                    <path d="M89.6676923,29.1323077 L89.8961538,29.7138462 L96.1961538,25.8784615 C95.8375756,25.1939775 95.4255266,24.538866 94.9638462,23.9192308 L88.83,27.6923077 C89.1567739,28.1430276 89.4374153,28.6254525 89.6676923,29.1323077 L89.6676923,29.1323077 Z" id="Shape"></path>
                    <path d="M83.7069231,50.6215385 C81.1768363,50.6673059 78.6666551,50.1666865 76.3476923,49.1538462 C78.3,50.6492308 81.3738462,52.11 85.9776923,52.11 C93.1638462,52.11 98.3769231,47.9561538 98.3769231,42.2238462 C98.4684534,39.9281313 97.7035572,37.6803233 96.2307692,35.9169231 C96.7025141,37.1976897 96.9371094,38.5536504 96.9230769,39.9184615 C96.9230769,46.1215385 91.3846154,50.6215385 83.7069231,50.6215385 Z" id="Shape"></path>
                    <path d="M92.0769231,32.94 C90.9204097,32.08301 89.647598,31.3953187 88.2969231,30.8976923 L83.1184615,28.89 L82.2946154,28.5715385 C80.4807692,27.8792308 79.5253846,26.7438462 79.5253846,25.2207692 C79.5253846,23.5730769 80.9861538,22.4515385 83.1530769,22.4515385 C85.9776923,22.4515385 87.5353846,25.2207692 87.9992308,26.2107692 L93.8630769,22.6453846 C92.9557622,21.1839236 91.7814738,19.9062978 90.4015385,18.8792308 C88.1306497,17.1509181 85.3490204,16.227768 82.4953846,16.2553846 C75.9807692,16.2553846 71.9515385,20.5684615 71.9515385,24.5630769 C71.9474517,25.4967618 72.0614325,26.4272171 72.2907692,27.3323077 C73.0661538,30.4684615 75.2746154,32.6630769 79.1376923,34.1169231 L84.1430769,36 C86.3930769,36.8584615 87.5284615,38.0769231 87.5284615,39.7315385 C87.5240873,40.199951 87.3950504,40.6587488 87.1546154,41.0607692 C86.67,41.8569231 85.5761538,42.6669231 83.1184615,42.6669231 C82.6519806,42.66642 82.1872022,42.6106466 81.7338462,42.5007692 C80.6677798,42.2502437 79.7024288,41.6831 78.9646154,40.8738462 C78.4487577,40.3126859 78.0425282,39.6599007 77.7669231,38.9492308 L71.2038462,42.1407692 C71.5577147,42.8831656 71.9993286,43.5804507 72.5192308,44.2176923 C72.8525516,44.644418 73.2182488,45.0448332 73.6130769,45.4153846 C75.3369231,47.0423077 78.4592308,48.9807692 83.6792308,48.9807692 C90.3946154,48.9807692 95.2684615,45.1661538 95.2684615,39.9115385 C95.2961538,36.5053846 93.9323077,34.3869231 92.0769231,32.94 Z" id="Shape"></path>
                    <path d="M50.7738462,50.6215385 C48.1195736,50.6185084 45.5000932,50.0174713 43.11,48.8630769 C49.8464394,53.7505879 59.1333015,53.0309453 65.0363734,47.1639936 C70.9394452,41.297042 71.7160733,32.0147716 66.87,25.2484615 C67.9940994,27.6102904 68.5782321,30.192772 68.58,32.8084615 C68.5723701,42.6404877 60.6058686,50.6100866 50.7738462,50.6215385 L50.7738462,50.6215385 Z" id="Shape"></path>
                    <path d="M53.0446154,27.4915385 C53.8657208,27.502331 54.6795358,27.647321 55.4538462,27.9207692 C52.8213596,25.2691653 48.537758,25.2536675 45.886154,27.886154 C43.23455,30.5186404 43.2190521,34.8022421 45.8515385,37.4538462 C45.5860705,36.6946299 45.4457795,35.8973094 45.4361538,35.0930769 C45.4437844,30.8953255 48.8468588,27.4953477 53.0446154,27.4915385 L53.0446154,27.4915385 Z" id="Shape"></path>
                    <path d="M60.2307692,19.7169231 C54.1718698,15.3533938 45.9122641,15.7094382 40.251337,20.5781705 C34.59041,25.4469029 33.0025522,33.5602599 36.4104157,40.2038369 C39.8182791,46.847414 47.3342843,50.2908889 54.5911282,48.5333717 C61.8479721,46.7758545 66.9556067,40.2750913 66.9461538,32.8084615 C66.9556163,27.6156255 64.4539228,22.7386128 60.2307692,19.7169231 L60.2307692,19.7169231 Z M42.3553846,32.8084615 C42.362957,28.6931622 45.3446546,25.186526 49.4052127,24.517486 C53.4657707,23.8484461 57.4148591,26.2131276 58.7423077,30.1084615 C59.0405631,30.9773896 59.1926267,31.8897711 59.1923077,32.8084615 C59.1884971,37.4573916 55.4227715,41.226214 50.7738462,41.2338462 C49.8303406,41.2330216 48.8938694,41.0714804 48.0046154,40.7561538 C44.6240941,39.5763952 42.3584385,36.3889287 42.3553846,32.8084615 L42.3553846,32.8084615 Z" id="Shape"></path>
                    <rect id="Rectangle-path" x="1.48153846" y="72.5469231" width="11.3469231" height="1.46769231"></rect>
                    <polygon id="Shape" points="39.6761538 65.5269231 38.2223077 65.5269231 38.2223077 72.5469231 23.7946154 72.5469231 23.7946154 113.566154 15.9092308 113.566154 15.9092308 115.033846 25.2484615 115.033846 25.2484615 74.0146154 39.6761538 74.0146154"></polygon>
                    <polygon id="Shape" points="0.0276923077 64.0592308 0.0276923077 70.9130769 1.48153846 70.9130769 14.4553846 70.9130769 14.4553846 74.0146154 14.4553846 111.932308 15.9092308 111.932308 22.1607692 111.932308 22.1607692 70.9130769 36.5884615 70.9130769 36.5884615 65.5269231 36.5884615 64.0592308"></polygon>
                    <path d="M93.3853846,95.6630769 C94.9878729,94.3413762 96.4961535,92.909435 97.8992308,91.3776923 L97.8992308,82.1284615 L96.0784615,82.1284615 L96.0784615,89.7438462 L95.8707692,89.9723077 C94.3903274,91.6493261 92.7690221,93.1965146 91.0246154,94.5969231 L101.298462,113.538462 L91.5023077,113.538462 L92.2984615,115.006154 L103.846154,115.006154 L93.3853846,95.6630769 Z" id="Shape"></path>
                    <path d="M79.7053846,66.9253846 L78.2307692,66.9253846 L78.2307692,90.5676923 C78.7292308,90.3669231 79.2069231,90.1246154 79.6846154,89.8753846 L79.7053846,66.9253846 Z" id="Shape"></path>
                    <path d="M78.2307692,101.007692 L78.2307692,113.538462 L71.01,113.538462 L71.01,115.006154 L79.7053846,115.006154 L79.7053846,102.655385 C80.8369705,102.366193 81.9510962,102.012538 83.0423077,101.596154 L82.0315385,99.6923077 C80.7963992,100.217722 79.5264562,100.657229 78.2307692,101.007692 L78.2307692,101.007692 Z" id="Shape"></path>
                    <path d="M88.9130769,94.1538462 L89.4530769,93.7315385 C91.2514523,92.3444227 92.9219726,90.7990177 94.4446154,89.1138462 L94.4446154,80.6607692 L87.3761538,80.6607692 L87.3761538,86.3584615 L87.1338462,86.6007692 C84.9727025,88.7163207 82.4588079,90.4383268 79.7053846,91.6892308 C79.0476923,91.9869231 78.39,92.2776923 77.7046154,92.52 L76.6246154,92.8938462 L76.6246154,65.4576923 L69.5561538,65.4576923 L69.5561538,111.932308 L76.6246154,111.932308 L76.6246154,99.7338462 L77.2407692,99.5815385 C78.9024798,99.1793771 80.5244575,98.6279046 82.0869231,97.9338462 L82.7792308,97.6153846 L84.6069231,100.993846 L90.5469231,111.932308 L98.5915385,111.932308 L88.9130769,94.1538462 Z" id="Shape"></path>
                    <path d="M132.923077,82.1284615 C130.008462,91.35 126.401538,102.053077 123.957692,109.308462 C123.265385,111.385385 122.676923,113.116154 122.240769,114.424615 C118.149231,126.692308 112.548462,127.71 106.753846,127.71 L104.746154,127.71 L104.746154,129.177692 L108.99,129.177692 C114.860769,129.177692 119.88,127.903846 123.701538,116.446154 C125.778462,110.298462 131.199231,94.3684615 135.020769,82.1284615 L132.923077,82.1284615 Z" id="Shape"></path>
                    <polygon id="Shape" points="117.685385 96.0092308 112.368462 82.1284615 110.596154 82.1284615 110.104615 82.1284615 116.792308 99.0623077"></polygon>
                    <path d="M123.874615,80.6607692 L118.398462,99.3530769 L117.013846,104.060769 L108.346154,82.1007692 L107.764615,80.6330769 L100.066154,80.6330769 L113.538462,112.714615 L113.448462,112.998462 C111.219231,119.921538 106.525385,119.921538 104.960769,119.921538 L103.299231,119.921538 L103.299231,126.062308 L106.760769,126.062308 C112.167692,126.062308 116.944615,125.148462 120.696923,113.891538 C121.133077,112.583077 121.721538,110.838462 122.420769,108.775385 C124.823077,101.651538 128.333077,91.2115385 131.22,82.1146154 L131.683846,80.6469231 L123.874615,80.6607692 Z" id="Shape"></path>
                    <path d="M63,89.2523077 C66.2191517,96.0588256 64.7977577,104.155398 59.452714,109.458428 C54.1076702,114.761458 46.0001339,116.118917 39.2192308,112.846154 C45.9533426,117.715553 55.2226645,116.9939 61.1219979,111.140937 C67.0213313,105.287974 67.8161079,96.024635 63,89.2523077 L63,89.2523077 Z" id="Shape"></path>
                    <path d="M51.57,91.9315385 C48.9157902,89.4079896 44.7360584,89.4524039 42.1360728,92.0317844 C39.5360872,94.6111649 39.4584184,98.790411 41.9607692,101.464615 C41.6953013,100.705399 41.5550103,99.9080787 41.5453846,99.1038462 C41.5453846,94.8979854 44.9549084,91.4884615 49.1607692,91.4884615 C49.98296,91.5005197 50.7973162,91.6502864 51.57,91.9315385 Z" id="Shape"></path>
                    <path d="M63.0623077,96.8192308 C63.0508367,87.9005765 55.8155928,80.6777297 46.896932,80.6815533 C37.9782712,80.685377 30.7492231,87.914425 30.7453995,96.8330858 C30.7415758,105.751747 37.9644227,112.986991 46.8830769,112.998462 C51.1768944,113.007678 55.297502,111.306045 58.3336965,108.26985 C61.369891,105.233656 63.0715239,101.113048 63.0623077,96.8192308 Z M38.4646154,96.8192308 C38.4888813,92.7103885 41.4757858,89.2193424 45.5314022,88.5596836 C49.5870186,87.9000249 53.5263417,90.2644982 54.8515385,94.1538462 C55.1497939,95.0227742 55.3018575,95.9351557 55.3015385,96.8538462 C55.2711334,101.483843 51.5131675,105.223266 46.8830769,105.230769 C45.9395713,105.229945 45.0031001,105.068403 44.1138462,104.753077 C40.7394251,103.573257 38.4756208,100.393944 38.4646154,96.8192308 Z" id="Shape"></path>
                    <path d="M167.538462,96.8192308 C167.546636,102.93425 164.40915,108.623617 159.233124,111.879731 C154.057097,115.135846 147.570232,115.500929 142.061538,112.846154 C148.800924,117.717772 158.0772,116.990076 163.974494,111.12715 C169.871787,105.264223 170.653685,95.992358 165.821538,89.2246154 C166.947983,91.5981916 167.534352,94.1919271 167.538462,96.8192308 L167.538462,96.8192308 Z" id="Shape"></path>
                    <path d="M151.989231,91.5023077 C152.812962,91.5091494 153.629699,91.6542431 154.405385,91.9315385 C151.751175,89.4079896 147.571443,89.4524039 144.971457,92.0317844 C142.371472,94.6111649 142.293803,98.790411 144.796154,101.464615 C144.001641,99.1535211 144.379972,96.6004566 145.810573,94.6190958 C147.241173,92.637735 149.545529,91.4753161 151.989231,91.5023077 L151.989231,91.5023077 Z" id="Shape"></path>
                    <path d="M159.182308,83.7276923 C153.123408,79.3641631 144.863803,79.7202075 139.202875,84.5889398 C133.541948,89.4576721 131.954091,97.5710291 135.361954,104.214606 C138.769818,110.858183 146.285823,114.301658 153.542667,112.544141 C160.799511,110.786624 165.907145,104.285861 165.897692,96.8192308 C165.907155,91.6263948 163.405461,86.7493821 159.182308,83.7276923 L159.182308,83.7276923 Z M141.3,96.8192308 C141.307572,92.7039314 144.28927,89.1972953 148.349828,88.5282553 C152.410386,87.8592153 156.359474,90.2238969 157.686923,94.1192308 C157.987533,94.98776 158.141938,95.9001521 158.143846,96.8192308 C158.01317,101.376526 154.281091,105.003125 149.721923,105.003125 C145.162755,105.003125 141.430676,101.376526 141.3,96.8192308 L141.3,96.8192308 Z" id="Shape"></path>
                    <path d="M62.8407692,64.2184615 C62.943076,64.7664811 62.9963635,65.3225246 63,65.88 C62.9923751,70.9276947 58.9023101,75.0177597 53.8546154,75.0253846 C53.2971399,75.0217481 52.7410965,74.9684606 52.1930769,74.8661538 C54.6298723,76.1842535 57.5807153,76.1217156 59.9594782,74.7015586 C62.338241,73.2814017 63.793355,70.7135176 63.7892308,67.9430769 C63.7865628,66.6421307 63.4606423,65.3622384 62.8407692,64.2184615 Z" id="Shape"></path>
                    <path d="M61.0892308,62.8269231 C60.8909957,62.3409431 60.6427361,61.8769066 60.3484615,61.4423077 C58.5765909,58.8314534 55.4138097,57.5350928 52.3192357,58.151289 C49.2246618,58.7674853 46.7996978,61.1764863 46.1630769,64.2669231 C45.9508592,65.3131934 45.9508592,66.3914219 46.1630769,67.4376923 C46.4715681,68.9412229 47.2155243,70.3207921 48.3023077,71.4046154 C48.6541269,71.7520208 49.0364313,72.0671323 49.4446154,72.3461538 C50.2986573,72.9264678 51.2583578,73.3333996 52.2692308,73.5438462 C53.3155011,73.7560639 54.3937296,73.7560639 55.44,73.5438462 C56.9414396,73.2296169 58.3194542,72.486499 59.4069231,71.4046154 C61.6647855,69.1447941 62.3298221,65.7429814 61.0892308,62.7992308 L61.0892308,62.8269231 Z M56.1807692,62.7230769 C56.8192954,62.7230769 57.3369231,63.2407046 57.3369231,63.8792308 C57.3369231,64.5177569 56.8192954,65.0353846 56.1807692,65.0353846 C55.5422431,65.0353846 55.0246154,64.5177569 55.0246154,63.8792308 C55.0246154,63.5725997 55.1464241,63.2785274 55.363245,63.0617065 C55.5800659,62.8448856 55.8741382,62.7230769 56.1807692,62.7230769 L56.1807692,62.7230769 Z M51.5284615,62.7230769 C52.1660725,62.726895 52.6802247,63.2462012 52.6776831,63.8838185 C52.6751415,64.5214359 52.1568657,65.0366267 51.5192446,65.0353616 C50.8816234,65.0340965 50.365396,64.5168532 50.3653846,63.8792308 C50.3653791,63.5713964 50.4881377,63.2762701 50.7064582,63.0592491 C50.9247788,62.8422281 51.2206327,62.7212336 51.5284615,62.7230769 L51.5284615,62.7230769 Z M53.8546154,71.0653846 C52.0301121,71.0715034 50.360518,70.0407572 49.5484615,68.4069231 L50.6976923,67.8461538 C50.7530769,67.95 50.8223077,68.04 50.8846154,68.1369231 C50.9469231,68.2338462 50.9953846,68.3376923 51.0646154,68.4276923 C51.7349646,69.2875393 52.7643379,69.7902601 53.8546154,69.7902601 C54.9448929,69.7902601 55.9742661,69.2875393 56.6446154,68.4276923 C56.7138462,68.3376923 56.7623077,68.2338462 56.8246154,68.1369231 C56.8869231,68.04 56.9561538,67.95 57.0115385,67.8461538 L58.1607692,68.4276923 C57.3428952,70.053456 55.6744848,71.0754244 53.8546154,71.0653846 L53.8546154,71.0653846 Z" id="Shape"></path>
                </g>
            </g>
        </g>
    </g>
</svg>