<?xml version="1.0" encoding="UTF-8"?>
<svg width="228px" height="10px" viewBox="0 0 228 10" version="1.1" xmlns="http://www.w3.org/2000/svg" xmlns:xlink="http://www.w3.org/1999/xlink">
    <!-- Generator: Sketch 47.1 (45422) - http://www.bohemiancoding.com/sketch -->
    <title>Dattebayo</title>
    <desc>Created with Sketch.</desc>
    <defs></defs>
    <g id="Page-1" stroke="none" stroke-width="1" fill="none" fill-rule="evenodd">
        <g id="desktop-intro" transform="translate(-827.000000, -624.000000)" stroke="#FFFF00" stroke-width="4">
            <g id="Shapes" transform="translate(139.000000, 380.000000)">
                <path d="M688,246 C695.107,246 695.107,252 702.214,252 C709.324,252 709.324,246 716.433,246 C723.543,246 723.543,252 730.653,252 C737.763,252 737.763,246 744.872,246 C751.981,246 751.981,252 759.091,252 C766.201,252 766.201,246 773.311,246 C780.422,246 780.422,252 787.534,252 C794.644,252 794.644,246 801.754,246 C808.865,246 808.865,252 815.976,252 C823.086,252 823.086,246 830.198,246 C837.31,246 837.31,252 844.421,252 C851.531,252 851.531,246 858.641,246 C865.753,246 865.753,252 872.866,252 C879.976,252 879.976,246 887.086,246 C894.201,246 894.201,252 901.316,252 C908.431,252 908.431,246 915.546,246" id="Dattebayo"></path>
            </g>
        </g>
    </g>
</svg>