<?xml version="1.0" encoding="UTF-8"?>
<svg width="302px" height="15px" viewBox="0 0 302 15" version="1.1" xmlns="http://www.w3.org/2000/svg" xmlns:xlink="http://www.w3.org/1999/xlink">
    <!-- Generator: Sketch 47.1 (45422) - http://www.bohemiancoding.com/sketch -->
    <title>Lost in Tokyo</title>
    <desc>Created with Sketch.</desc>
    <defs></defs>
    <g id="Page-1" stroke="none" stroke-width="1" fill="none" fill-rule="evenodd">
        <g id="desktop-intro" transform="translate(-139.000000, -380.000000)" fill-rule="nonzero" fill="#00FFFF">
            <g id="Shapes" transform="translate(139.000000, 383.000000)">
                <polygon id="Lost-in-Tokyo" points="26.886767 2.46822759 39.3320795 11.4682276 51.775625 2.46828507 64.21925 11.4682851 76.6629015 2.46826591 89.107036 11.4682276 101.551865 2.46817013 113.99774 11.4681701 126.442464 2.46818928 138.887776 11.4681893 151.332526 2.46818928 163.777865 11.4682084 176.222079 2.46818928 188.667981 11.4682084 201.111553 2.46824675 213.556224 11.4681893 226.001642 2.46811267 238.448589 11.4680744 250.895 2.46809352 263.341385 11.4680552 275.789079 2.46795951 288.23825 11.4679021 301.85924 1.62080984 299.51576 -1.62080984 288.23825 6.53209791 275.788921 -2.46795951 263.34149 6.53194477 250.895 -2.46809352 238.448536 6.53192563 226.001483 -2.46811267 213.556276 6.53181072 201.111447 -2.46824675 188.667769 6.53179156 176.221921 -2.46818928 163.77776 6.53179156 151.332474 -2.46818928 138.887724 6.53181072 126.442411 -2.46818928 113.997635 6.53182987 101.55176 -2.46817013 89.107089 6.53177241 76.6628485 -2.46826591 64.21925 6.53171493 51.775625 -2.46828507 39.3319205 6.53177241 26.886608 -2.46822759 14.443089 6.53169577 3.17212292 -1.6205332 0.827877076 1.6205332 14.443036 11.4683042"></polygon>
            </g>
        </g>
    </g>
</svg>